<?xml version="1.0" encoding="UTF-8" standalone="no"?>
<!DOCTYPE svg PUBLIC "-//W3C//DTD SVG 1.1//EN" "http://www.w3.org/Graphics/SVG/1.1/DTD/svg11.dtd">
<svg width="100%" height="100%" viewBox="0 0 216 224" version="1.1" xmlns="http://www.w3.org/2000/svg" xmlns:xlink="http://www.w3.org/1999/xlink" xml:space="preserve" xmlns:serif="http://www.serif.com/" style="fill-rule:evenodd;clip-rule:evenodd;stroke-linecap:round;stroke-linejoin:round;stroke-miterlimit:1.5;">
    <g transform="matrix(1,0,0,1,-3096,-2548)">
        <g id="Монтажная-область10" serif:id="Монтажная область10" transform="matrix(1.55203,0,0,2.07176,-1687.8,-2674.42)">
            <rect x="3066.02" y="2485.99" width="295.287" height="206.5" style="fill:none;"/>
            <g transform="matrix(0.644317,0,0,0.482681,1936.04,1504.38)">
                <g transform="matrix(20,0,0,20,1888.15,2131.23)">
                    <path d="M0.51,-0.485C0.503,-0.456 0.496,-0.428 0.488,-0.401C0.48,-0.373 0.472,-0.346 0.462,-0.318C0.452,-0.291 0.442,-0.263 0.43,-0.236C0.419,-0.208 0.406,-0.181 0.393,-0.154C0.38,-0.127 0.365,-0.1 0.349,-0.073C0.315,-0.013 0.282,0.036 0.251,0.075C0.22,0.113 0.188,0.143 0.155,0.164C0.123,0.185 0.087,0.199 0.048,0.207L0.036,0.163C0.061,0.156 0.083,0.147 0.105,0.134C0.126,0.122 0.147,0.106 0.168,0.086C0.189,0.066 0.209,0.042 0.23,0.012C0.25,-0.017 0.271,-0.051 0.292,-0.091C0.317,-0.134 0.338,-0.177 0.357,-0.218C0.375,-0.259 0.391,-0.301 0.406,-0.344C0.42,-0.387 0.433,-0.434 0.445,-0.485L0.51,-0.485ZM0.115,-0.485L0.198,-0.072C0.201,-0.058 0.21,-0.051 0.224,-0.051L0.279,-0.051L0.249,-0L0.197,-0C0.183,-0 0.172,-0.004 0.162,-0.012C0.153,-0.02 0.147,-0.03 0.144,-0.042L0.048,-0.485L0.115,-0.485Z" style="fill-rule:nonzero;"/>
                </g>
            </g>
            <g transform="matrix(0.644317,0,0,0.482681,1959.11,1526.39)">
                <g transform="matrix(20,0,0,20,1934.21,2190.88)">
                    <path d="M0.132,-0.485L0.256,-0.246L0.058,-0L-0.015,-0L0.191,-0.252L0.067,-0.485L0.132,-0.485ZM0.3,-0.277L0.292,-0.227L0.207,-0.227L0.214,-0.277L0.3,-0.277ZM0.506,-0.485L0.316,-0.251L0.45,-0L0.385,-0L0.25,-0.256L0.436,-0.485L0.506,-0.485Z" style="fill-rule:nonzero;"/>
                </g>
            </g>
            <g transform="matrix(0.644317,0,0,0.419693,1962.02,1685.86)">
                <rect x="1742.59" y="2119.55" width="200" height="23.002" style="fill:none;stroke:black;stroke-width:1.07px;"/>
            </g>
            <g transform="matrix(0.644317,0,0,0.419693,1962.02,1647.27)">
                <rect x="1742.59" y="2119.55" width="200" height="23.002" style="fill:none;stroke:black;stroke-width:1.07px;"/>
            </g>
            <g transform="matrix(0.644317,0,0,0.419693,1962.02,1714.83)">
                <rect x="1742.59" y="2119.55" width="200" height="23.002" style="fill:none;stroke:black;stroke-width:1.07px;"/>
            </g>
            <g transform="matrix(0.644317,0,0,0.419693,1962.02,1656.92)">
                <rect x="1742.59" y="2119.55" width="200" height="23.002" style="fill:none;stroke:black;stroke-width:1.07px;"/>
            </g>
            <g transform="matrix(0.644317,0,0,0.419693,1962.02,1724.48)">
                <rect x="1742.59" y="2119.55" width="200" height="23.002" style="fill:none;stroke:black;stroke-width:1.07px;"/>
            </g>
            <g transform="matrix(0.644317,0,0,0.419693,1962.02,1676.23)">
                <rect x="1742.59" y="2119.55" width="200" height="23.002" style="fill:none;stroke:black;stroke-width:1.07px;"/>
            </g>
            <g transform="matrix(0.644317,0,0,0.419693,1962.02,1637.62)">
                <rect x="1742.59" y="2119.55" width="200" height="23.002" style="fill:none;stroke:black;stroke-width:1.07px;"/>
            </g>
            <g transform="matrix(0.644317,0,0,0.419693,1962.02,1705.17)">
                <rect x="1742.59" y="2119.55" width="200" height="23.002" style="fill:none;stroke:black;stroke-width:1.07px;"/>
            </g>
            <g transform="matrix(0.645241,0,0,0.344511,1960.41,1796.98)">
                <rect x="1742.59" y="2119.55" width="199.714" height="140.059" style="fill:none;stroke:black;stroke-width:1.15px;"/>
            </g>
            <g transform="matrix(0.645241,0,0,0.344627,1960.41,1844.97)">
                <rect x="1742.59" y="2119.55" width="199.714" height="140.059" style="fill:none;stroke:black;stroke-width:1.15px;"/>
            </g>
            <g transform="matrix(0.644317,0,0,0.482681,1935.77,1523.42)">
                <path d="M1786.04,2153.67C1789.83,2174.91 1801.69,2239.49 1823.34,2239.51C1844.01,2239.51 1858.29,2180.62 1863.34,2159.55C1867.15,2143.62 1876.06,2100.93 1880.52,2079.58" style="fill:none;stroke:black;stroke-width:2px;"/>
            </g>
            <g transform="matrix(0.531805,0,0,0.369039,2140.03,1741.58)">
                <rect x="1776.53" y="2128.8" width="24.231" height="130.75" style="fill:none;stroke:black;stroke-width:1.26px;"/>
            </g>
            <g transform="matrix(0.531805,0,0,0.369164,2140.03,1789.55)">
                <rect x="1776.53" y="2128.8" width="24.231" height="130.75" style="fill:none;stroke:black;stroke-width:1.26px;"/>
            </g>
            <g transform="matrix(0.531805,0,0,0.369039,2178.69,1741.58)">
                <rect x="1776.53" y="2128.8" width="24.231" height="130.75" style="fill:none;stroke:black;stroke-width:1.26px;"/>
            </g>
            <g transform="matrix(0.531805,0,0,0.369164,2178.69,1789.55)">
                <rect x="1776.53" y="2128.8" width="24.231" height="130.75" style="fill:none;stroke:black;stroke-width:1.26px;"/>
            </g>
            <g transform="matrix(0.531805,0,0,0.369039,2217.35,1741.58)">
                <rect x="1776.53" y="2128.8" width="24.231" height="130.75" style="fill:none;stroke:black;stroke-width:1.26px;"/>
            </g>
            <g transform="matrix(0.531805,0,0,0.369164,2217.35,1789.55)">
                <rect x="1776.53" y="2128.8" width="24.231" height="130.75" style="fill:none;stroke:black;stroke-width:1.26px;"/>
            </g>
            <g transform="matrix(0.531805,0,0,0.369039,2204.46,1741.58)">
                <rect x="1776.53" y="2128.8" width="24.231" height="130.75" style="fill:none;stroke:black;stroke-width:1.26px;"/>
            </g>
            <g transform="matrix(0.531805,0,0,0.369164,2204.46,1789.55)">
                <rect x="1776.53" y="2128.8" width="24.231" height="130.75" style="fill:none;stroke:black;stroke-width:1.26px;"/>
            </g>
            <g transform="matrix(0.531805,0,0,0.369039,2256.01,1741.58)">
                <rect x="1776.53" y="2128.8" width="24.231" height="130.75" style="fill:none;stroke:black;stroke-width:1.26px;"/>
            </g>
            <g transform="matrix(0.531805,0,0,0.369164,2256.01,1789.55)">
                <rect x="1776.53" y="2128.8" width="24.231" height="130.75" style="fill:none;stroke:black;stroke-width:1.26px;"/>
            </g>
            <g transform="matrix(0.531805,0,0,0.369039,2243.12,1741.58)">
                <rect x="1776.53" y="2128.8" width="24.231" height="130.75" style="fill:none;stroke:black;stroke-width:1.26px;"/>
            </g>
            <g transform="matrix(0.531805,0,0,0.369164,2243.12,1789.55)">
                <rect x="1776.53" y="2128.8" width="24.231" height="130.75" style="fill:none;stroke:black;stroke-width:1.26px;"/>
            </g>
            <g transform="matrix(0.531805,0,0,0.369039,2165.81,1741.58)">
                <rect x="1776.53" y="2128.8" width="24.231" height="130.75" style="fill:none;stroke:black;stroke-width:1.26px;"/>
            </g>
            <g transform="matrix(0.531805,0,0,0.369164,2165.81,1789.55)">
                <rect x="1776.53" y="2128.8" width="24.231" height="130.75" style="fill:none;stroke:black;stroke-width:1.26px;"/>
            </g>
            <g transform="matrix(0.644317,0,0,0.482681,1962.02,1523.59)">
                <path d="M1742.59,2179.55L1942.59,2179.55L1927.91,2175.02C1927.91,2175.02 1933.89,2178.17 1933.82,2179.55C1933.74,2180.93 1927.49,2183.29 1927.49,2183.29L1942.59,2179.55" style="stroke:black;stroke-width:2px;"/>
            </g>
            <g transform="matrix(0.644317,0,0,0.482681,1936.39,1484.8)">
                <path d="M1902.37,2359.51L1902.37,2159.58L1906.46,2173.12C1906.46,2173.12 1903.8,2168.37 1902.36,2168.4C1900.92,2168.43 1897.81,2173.3 1897.81,2173.3L1902.36,2159.58" style="stroke:black;stroke-width:2px;"/>
            </g>
            <g transform="matrix(0.644317,0,0,0.482681,1936.28,1528.43)">
                <g transform="matrix(20,0,0,20,1886.79,2185.58)">
                    <path d="M0.387,-0.703C0.45,-0.703 0.5,-0.691 0.536,-0.668C0.573,-0.645 0.597,-0.607 0.608,-0.554C0.618,-0.501 0.618,-0.431 0.605,-0.342C0.596,-0.276 0.584,-0.22 0.568,-0.175C0.552,-0.129 0.533,-0.093 0.509,-0.065C0.485,-0.038 0.455,-0.018 0.42,-0.006C0.385,0.007 0.343,0.013 0.295,0.013C0.231,0.013 0.181,0.001 0.144,-0.022C0.108,-0.044 0.084,-0.082 0.072,-0.135C0.061,-0.187 0.061,-0.258 0.073,-0.348C0.083,-0.413 0.095,-0.468 0.11,-0.513C0.126,-0.558 0.145,-0.595 0.17,-0.623C0.194,-0.651 0.224,-0.671 0.259,-0.684C0.295,-0.696 0.337,-0.703 0.387,-0.703ZM0.383,-0.644C0.333,-0.644 0.292,-0.634 0.26,-0.616C0.228,-0.597 0.203,-0.566 0.185,-0.522C0.167,-0.478 0.152,-0.418 0.142,-0.342C0.132,-0.268 0.129,-0.209 0.135,-0.166C0.141,-0.123 0.157,-0.093 0.183,-0.074C0.209,-0.056 0.246,-0.046 0.295,-0.046C0.346,-0.046 0.387,-0.056 0.418,-0.075C0.45,-0.093 0.475,-0.125 0.493,-0.169C0.512,-0.213 0.527,-0.272 0.537,-0.348C0.548,-0.423 0.551,-0.483 0.545,-0.526C0.539,-0.569 0.523,-0.599 0.497,-0.617C0.471,-0.635 0.433,-0.644 0.383,-0.644Z" style="fill-rule:nonzero;"/>
                </g>
            </g>
            <g transform="matrix(1,0,0,1,3.60917,0.135115)">
                <g transform="matrix(0.67292,0,0,0.529084,991.855,1166.94)">
                    <rect x="3234.72" y="2664.22" width="8.423" height="13.807" style="fill:white;stroke:white;stroke-width:0.93px;"/>
                </g>
                <g transform="matrix(0.644317,0,0,0.482681,1951.11,1542.96)">
                    <g transform="matrix(20,0,0,20,1888.04,2155.79)">
                        <path d="M0.494,-0.055L0.486,0L0.074,0L0.082,-0.055L0.494,-0.055ZM0.414,-0.69L0.318,-0L0.252,-0L0.332,-0.572C0.333,-0.581 0.335,-0.59 0.337,-0.6C0.339,-0.609 0.341,-0.618 0.344,-0.627L0.161,-0.571L0.158,-0.618L0.349,-0.69L0.414,-0.69Z" style="fill-rule:nonzero;"/>
                    </g>
                </g>
            </g>
            <g transform="matrix(1,0,0,1,-14.1806,-14.4017)">
                <g transform="matrix(0.67292,0,0,0.529084,991.855,1166.94)">
                    <rect x="3234.72" y="2664.22" width="8.423" height="13.807" style="fill:white;stroke:white;stroke-width:0.93px;"/>
                </g>
                <g transform="matrix(0.644317,0,0,0.482681,1951.11,1542.96)">
                    <g transform="matrix(20,0,0,20,1888.04,2155.79)">
                        <path d="M0.494,-0.055L0.486,0L0.074,0L0.082,-0.055L0.494,-0.055ZM0.414,-0.69L0.318,-0L0.252,-0L0.332,-0.572C0.333,-0.581 0.335,-0.59 0.337,-0.6C0.339,-0.609 0.341,-0.618 0.344,-0.627L0.161,-0.571L0.158,-0.618L0.349,-0.69L0.414,-0.69Z" style="fill-rule:nonzero;"/>
                    </g>
                </g>
            </g>
            <g transform="matrix(0.287281,0,0,0.411373,2194.91,1493.28)">
                <rect x="3093.03" y="2512.32" width="16.883" height="236.828" style="fill:white;stroke:white;stroke-width:1.47px;"/>
            </g>
        </g>
    </g>
</svg>
