<?xml version="1.0" encoding="UTF-8" standalone="no"?>
<!DOCTYPE svg PUBLIC "-//W3C//DTD SVG 1.1//EN" "http://www.w3.org/Graphics/SVG/1.1/DTD/svg11.dtd">
<svg width="100%" height="100%" viewBox="0 0 418 214" version="1.1" xmlns="http://www.w3.org/2000/svg" xmlns:xlink="http://www.w3.org/1999/xlink" xml:space="preserve" xmlns:serif="http://www.serif.com/" style="fill-rule:evenodd;clip-rule:evenodd;stroke-linecap:round;stroke-linejoin:round;stroke-miterlimit:1.5;">
    <g transform="matrix(1,0,0,1,-3249,-2177)">
        <g id="Монтажная-область9" serif:id="Монтажная область9" transform="matrix(1,0,0,1,-0.977082,-0.664028)">
            <rect x="3190.98" y="2177.66" width="657.89" height="265.925" style="fill:none;"/>
            <g transform="matrix(1,0,0,1,970.883,43.1407)">
                <path d="M2283.02,2225.68C2283.02,2225.68 2293.87,2216.6 2298.43,2211.23C2312.91,2194.18 2327.65,2170.47 2348.34,2170.74C2372.61,2171.05 2415.06,2253.77 2415.06,2253.77C2415.06,2253.77 2454.71,2335.47 2474.87,2335.42C2494.26,2335.37 2530.3,2269.82 2530.3,2269.82C2530.3,2269.82 2566.03,2203.49 2586.48,2203.43C2606.6,2203.37 2643.44,2269.57 2643.44,2269.57C2643.44,2269.57 2664.11,2310.11 2678.96,2319.81" style="fill:none;stroke:black;stroke-width:2.5px;"/>
            </g>
            <g>
                <g transform="matrix(1,0,0,1,970.883,43.1407)">
                    <path d="M2298.55,2153.97L2298.53,2348" style="fill:none;stroke:black;stroke-width:1px;"/>
                </g>
                <g transform="matrix(1,0,0,1,1102.96,43.1407)">
                    <path d="M2298.55,2153.97L2298.53,2348" style="fill:none;stroke:black;stroke-width:1px;"/>
                </g>
                <g transform="matrix(1,0,0,1,1235.07,43.1407)">
                    <path d="M2298.55,2153.97L2298.53,2348" style="fill:none;stroke:black;stroke-width:1px;"/>
                </g>
                <g transform="matrix(1,0,0,1,970.883,43.1407)">
                    <path d="M2331.59,2153.97L2331.6,2348" style="fill:none;stroke:black;stroke-width:1px;"/>
                </g>
                <g transform="matrix(1,0,0,1,1102.96,43.1407)">
                    <path d="M2331.59,2153.97L2331.6,2348" style="fill:none;stroke:black;stroke-width:1px;"/>
                </g>
                <g transform="matrix(1,0,0,1,1235.07,43.1407)">
                    <path d="M2331.59,2153.97L2331.6,2348" style="fill:none;stroke:black;stroke-width:1px;"/>
                </g>
                <g transform="matrix(1,0,0,1,970.883,43.1407)">
                    <path d="M2364.61,2348L2364.57,2153.97" style="fill:none;stroke:black;stroke-width:1px;"/>
                </g>
                <g transform="matrix(1,0,0,1,1102.96,43.1407)">
                    <path d="M2364.61,2348L2364.57,2153.97L2364.57,2139.14L2369.01,2153.34C2369.01,2153.34 2366,2148.53 2364.57,2148.55C2363.13,2148.58 2360.39,2153.51 2360.39,2153.51L2364.57,2139.14" style="stroke:black;stroke-width:1.5px;"/>
                </g>
                <g transform="matrix(1,0,0,1,1235.07,43.1407)">
                    <path d="M2364.61,2348L2364.57,2153.97" style="fill:none;stroke:black;stroke-width:1px;"/>
                </g>
                <g transform="matrix(1,0,0,1,970.883,43.1407)">
                    <path d="M2397.56,2153.97L2397.62,2348" style="fill:none;stroke:black;stroke-width:1px;"/>
                </g>
                <g transform="matrix(1,0,0,1,1102.96,43.1407)">
                    <path d="M2397.56,2153.97L2397.62,2348" style="fill:none;stroke:black;stroke-width:1px;"/>
                </g>
                <g transform="matrix(1,0,0,1,1235.07,43.1407)">
                    <path d="M2397.56,2153.97L2397.62,2348" style="fill:none;stroke:black;stroke-width:1px;"/>
                </g>
                <g transform="matrix(1,0,0,1,970.883,43.1407)">
                    <path d="M2282.26,2170.94L2678.48,2170.91" style="fill:none;stroke:black;stroke-width:1px;"/>
                </g>
                <g transform="matrix(1,0,0,1,970.883,108.751)">
                    <path d="M2282.26,2170.94L2678.48,2170.91" style="fill:none;stroke:black;stroke-width:1px;"/>
                </g>
                <g transform="matrix(1,0,0,1,970.883,174.856)">
                    <path d="M2282.26,2170.94L2678.48,2170.91" style="fill:none;stroke:black;stroke-width:1px;"/>
                </g>
                <g transform="matrix(1,0,0,1,970.883,76.2185)">
                    <path d="M2282.26,2170.94L2678.48,2170.91" style="fill:none;stroke:black;stroke-width:1px;"/>
                </g>
                <g transform="matrix(1,0,0,1,970.883,141.828)">
                    <path d="M2282.26,2170.94L2678.48,2170.91L2694.2,2170.91L2679.31,2165.97C2679.31,2165.97 2685.41,2169.49 2685.51,2170.91C2685.6,2172.33 2679.85,2174.5 2679.85,2174.5L2694.2,2170.91" style="stroke:black;stroke-width:1.5px;"/>
                </g>
                <g transform="matrix(1,0,0,1,970.883,207.934)">
                    <path d="M2282.26,2170.94L2678.48,2170.91" style="fill:none;stroke:black;stroke-width:1px;"/>
                </g>
            </g>
            <g>
                <g transform="matrix(1,0,0,1,970.883,43.1407)">
                    <path d="M2323.52,2183.38L2323.34,2269.6" style="fill:none;stroke:black;stroke-width:1.5px;stroke-dasharray:7.5,6,0,0;"/>
                </g>
                <g transform="matrix(1,1.54161e-05,1.54161e-05,0.983581,970.848,80.369)">
                    <path d="M2374.9,2189.74L2374.83,2269.63" style="fill:none;stroke:black;stroke-width:1.51px;stroke-dasharray:7.56,6.05,0,0;"/>
                </g>
                <g transform="matrix(1,0,0,1,970.883,43.1407)">
                    <path d="M2448.21,2269.6L2448.29,2311.2" style="fill:none;stroke:black;stroke-width:1.5px;stroke-dasharray:7.5,6,0,0;"/>
                </g>
                <g transform="matrix(1,0,0,1,970.883,43.1407)">
                    <path d="M2505.17,2269.6L2505.3,2308.73" style="fill:none;stroke:black;stroke-width:1.5px;stroke-dasharray:7.5,4.5,0,0;"/>
                </g>
                <g transform="matrix(1,0,0,1,970.883,43.1407)">
                    <path d="M2547.44,2269.6L2547.41,2241.63" style="fill:none;stroke:black;stroke-width:1.5px;stroke-dasharray:7.5,6,0,0;"/>
                </g>
                <g transform="matrix(1,0,0,1,970.883,43.1407)">
                    <path d="M2571.07,2269.6L2571.04,2211.56" style="fill:none;stroke:black;stroke-width:1.5px;stroke-dasharray:7.5,6,0,0;"/>
                </g>
                <g transform="matrix(1,0,0,1,970.883,43.1407)">
                    <path d="M2613.53,2224.48L2613.53,2269.63" style="fill:none;stroke:black;stroke-width:1.5px;stroke-dasharray:7.5,6,0,0;"/>
                </g>
            </g>
            <g transform="matrix(1,0,0,1,981.196,38.7476)">
                <g transform="matrix(21.1797,0,0,21.1797,2469.29,2153.97)">
                    <path d="M0.51,-0.485C0.503,-0.456 0.496,-0.428 0.488,-0.401C0.48,-0.373 0.472,-0.346 0.462,-0.318C0.452,-0.291 0.442,-0.263 0.43,-0.236C0.419,-0.208 0.406,-0.181 0.393,-0.154C0.38,-0.127 0.365,-0.1 0.349,-0.073C0.315,-0.013 0.282,0.036 0.251,0.075C0.22,0.113 0.188,0.143 0.155,0.164C0.123,0.185 0.087,0.199 0.048,0.207L0.036,0.163C0.061,0.156 0.083,0.147 0.105,0.134C0.126,0.122 0.147,0.106 0.168,0.086C0.189,0.066 0.209,0.042 0.23,0.012C0.25,-0.017 0.271,-0.051 0.292,-0.091C0.317,-0.134 0.338,-0.177 0.357,-0.218C0.375,-0.259 0.391,-0.301 0.406,-0.344C0.42,-0.387 0.433,-0.434 0.445,-0.485L0.51,-0.485ZM0.115,-0.485L0.198,-0.072C0.201,-0.058 0.21,-0.051 0.224,-0.051L0.279,-0.051L0.249,-0L0.197,-0C0.183,-0 0.172,-0.004 0.162,-0.012C0.153,-0.02 0.147,-0.03 0.144,-0.042L0.048,-0.485L0.115,-0.485Z" style="fill-rule:nonzero;"/>
                </g>
            </g>
            <g transform="matrix(1,0,0,1,968.862,45.5411)">
                <g transform="matrix(21.1797,0,0,21.1797,2685.5,2287.59)">
                    <path d="M0.132,-0.485L0.256,-0.246L0.058,-0L-0.015,-0L0.191,-0.252L0.067,-0.485L0.132,-0.485ZM0.3,-0.277L0.292,-0.227L0.207,-0.227L0.214,-0.277L0.3,-0.277ZM0.506,-0.485L0.316,-0.251L0.45,-0L0.385,-0L0.25,-0.256L0.436,-0.485L0.506,-0.485Z" style="fill-rule:nonzero;"/>
                </g>
            </g>
            <g transform="matrix(1,0,0,1,976.016,44.4373)">
                <g transform="matrix(21.1797,0,0,21.1797,2544.98,2192.81)">
                    <path d="M0.51,-0.485C0.503,-0.456 0.496,-0.428 0.488,-0.401C0.48,-0.373 0.472,-0.346 0.462,-0.318C0.452,-0.291 0.442,-0.263 0.43,-0.236C0.419,-0.208 0.406,-0.181 0.393,-0.154C0.38,-0.127 0.365,-0.1 0.349,-0.073C0.315,-0.013 0.282,0.036 0.251,0.075C0.22,0.113 0.188,0.143 0.155,0.164C0.123,0.185 0.087,0.199 0.048,0.207L0.036,0.163C0.061,0.156 0.083,0.147 0.105,0.134C0.126,0.122 0.147,0.106 0.168,0.086C0.189,0.066 0.209,0.042 0.23,0.012C0.25,-0.017 0.271,-0.051 0.292,-0.091C0.317,-0.134 0.338,-0.177 0.357,-0.218C0.375,-0.259 0.391,-0.301 0.406,-0.344C0.42,-0.387 0.433,-0.434 0.445,-0.485L0.51,-0.485ZM0.115,-0.485L0.198,-0.072C0.201,-0.058 0.21,-0.051 0.224,-0.051L0.279,-0.051L0.249,-0L0.197,-0C0.183,-0 0.172,-0.004 0.162,-0.012C0.153,-0.02 0.147,-0.03 0.144,-0.042L0.048,-0.485L0.115,-0.485Z" style="fill-rule:nonzero;"/>
                </g>
                <g transform="matrix(21.1797,0,0,21.1797,2556.39,2192.81)">
                    <path d="M0.527,-0.422L0.52,-0.373L0.089,-0.373L0.096,-0.422L0.527,-0.422ZM0.498,-0.21L0.491,-0.161L0.06,-0.161L0.067,-0.21L0.498,-0.21Z" style="fill-rule:nonzero;"/>
                </g>
                <g transform="matrix(21.1797,0,0,21.1797,2568.8,2192.81)">
                    <path d="M0.309,-0.716C0.32,-0.716 0.333,-0.716 0.349,-0.715C0.364,-0.715 0.38,-0.715 0.397,-0.714C0.413,-0.713 0.428,-0.712 0.44,-0.71L0.431,-0.663L0.329,-0.663C0.294,-0.663 0.269,-0.656 0.252,-0.643C0.235,-0.63 0.225,-0.605 0.219,-0.569L0.129,0.066C0.123,0.111 0.109,0.145 0.086,0.169C0.063,0.192 0.028,0.204 -0.017,0.204C-0.03,0.204 -0.046,0.204 -0.065,0.203C-0.084,0.202 -0.103,0.2 -0.123,0.198L-0.114,0.151L-0.037,0.151C-0.004,0.151 0.021,0.144 0.037,0.131C0.052,0.118 0.062,0.093 0.067,0.057L0.156,-0.578C0.163,-0.623 0.178,-0.657 0.203,-0.681C0.227,-0.704 0.262,-0.716 0.309,-0.716ZM0.371,-0.485L0.363,-0.433L0.049,-0.433L0.055,-0.48L0.148,-0.485L0.371,-0.485Z" style="fill-rule:nonzero;"/>
                </g>
                <g transform="matrix(21.1797,0,0,21.1797,2576.79,2192.81)">
                    <path d="M0.38,-0.791L0.388,-0.757C0.314,-0.723 0.256,-0.669 0.213,-0.597C0.17,-0.525 0.141,-0.429 0.124,-0.31C0.113,-0.235 0.111,-0.168 0.117,-0.111C0.122,-0.053 0.137,-0.005 0.16,0.036C0.183,0.076 0.216,0.108 0.259,0.133L0.25,0.164C0.168,0.128 0.112,0.071 0.081,-0.008C0.05,-0.087 0.043,-0.19 0.061,-0.317C0.079,-0.443 0.114,-0.545 0.165,-0.622C0.216,-0.698 0.288,-0.755 0.38,-0.791Z" style="fill-rule:nonzero;"/>
                </g>
                <g transform="matrix(21.1797,0,0,21.1797,2583.61,2192.81)">
                    <path d="M0.132,-0.485L0.256,-0.246L0.058,-0L-0.015,-0L0.191,-0.252L0.067,-0.485L0.132,-0.485ZM0.3,-0.277L0.292,-0.227L0.207,-0.227L0.214,-0.277L0.3,-0.277ZM0.506,-0.485L0.316,-0.251L0.45,-0L0.385,-0L0.25,-0.256L0.436,-0.485L0.506,-0.485Z" style="fill-rule:nonzero;"/>
                </g>
                <g transform="matrix(21.1797,0,0,21.1797,2594.13,2192.81)">
                    <path d="M0.11,-0.789C0.192,-0.755 0.248,-0.698 0.28,-0.62C0.312,-0.542 0.319,-0.437 0.3,-0.307C0.282,-0.181 0.247,-0.081 0.196,-0.004C0.145,0.073 0.073,0.129 -0.02,0.166L-0.026,0.132C0.048,0.096 0.106,0.04 0.149,-0.033C0.191,-0.107 0.221,-0.201 0.237,-0.316C0.248,-0.391 0.251,-0.458 0.245,-0.515C0.239,-0.573 0.225,-0.622 0.201,-0.663C0.178,-0.703 0.145,-0.735 0.102,-0.758L0.11,-0.789Z" style="fill-rule:nonzero;"/>
                </g>
            </g>
            <g transform="matrix(1,0,0,1,970.883,43.1407)">
                <rect x="2284.86" y="2272.07" width="73.97" height="26.589" style="fill:white;stroke:white;stroke-width:1px;"/>
            </g>
            <g transform="matrix(2.03092,0,0,2.03092,-1596.58,-2302.51)">
                <g transform="matrix(21.1797,0,0,21.1797,2484.64,2282.4)">
                    <path d="M0.218,-0.335C0.257,-0.335 0.287,-0.324 0.306,-0.303C0.325,-0.282 0.335,-0.248 0.335,-0.203C0.335,-0.172 0.332,-0.139 0.327,-0.106C0.322,-0.072 0.313,-0.041 0.3,-0.013C0.287,0.016 0.269,0.039 0.246,0.057C0.223,0.074 0.193,0.083 0.158,0.083C0.119,0.083 0.089,0.073 0.07,0.052C0.05,0.031 0.04,-0.003 0.04,-0.048C0.04,-0.079 0.043,-0.112 0.048,-0.146C0.053,-0.179 0.063,-0.21 0.076,-0.239C0.089,-0.268 0.107,-0.291 0.13,-0.309C0.153,-0.326 0.182,-0.335 0.218,-0.335ZM0.211,-0.292C0.186,-0.292 0.166,-0.284 0.15,-0.268C0.134,-0.251 0.122,-0.23 0.114,-0.205C0.105,-0.179 0.099,-0.152 0.096,-0.125C0.093,-0.097 0.091,-0.072 0.091,-0.049C0.091,-0.018 0.097,0.005 0.109,0.02C0.12,0.034 0.139,0.041 0.164,0.041C0.189,0.041 0.21,0.033 0.226,0.016C0.241,-0.001 0.253,-0.022 0.262,-0.048C0.271,-0.073 0.277,-0.1 0.28,-0.127C0.283,-0.154 0.284,-0.18 0.284,-0.203C0.284,-0.234 0.278,-0.256 0.267,-0.271C0.255,-0.285 0.236,-0.292 0.211,-0.292Z" style="fill-rule:nonzero;"/>
                </g>
            </g>
            <g transform="matrix(1,0,0,1,968.65,42.4124)">
                <g transform="matrix(21.1797,0,0,21.1797,2293.17,2289.73)">
                    <path d="M0.132,-0.485L0.256,-0.246L0.058,-0L-0.015,-0L0.191,-0.252L0.067,-0.485L0.132,-0.485ZM0.3,-0.277L0.292,-0.227L0.207,-0.227L0.214,-0.277L0.3,-0.277ZM0.506,-0.485L0.316,-0.251L0.45,-0L0.385,-0L0.25,-0.256L0.436,-0.485L0.506,-0.485Z" style="fill-rule:nonzero;"/>
                </g>
                <g transform="matrix(21.1797,0,0,21.1797,2304.31,2289.73)">
                    <path d="M0.207,-0.327L0.149,0.075L0.099,0.075L0.145,-0.247C0.146,-0.252 0.147,-0.258 0.148,-0.264C0.149,-0.269 0.15,-0.275 0.152,-0.281L0.039,-0.249L0.037,-0.285L0.156,-0.327L0.207,-0.327Z" style="fill-rule:nonzero;"/>
                </g>
            </g>
            <g transform="matrix(0.670193,0,0,1,1808.1,42.6092)">
                <rect x="2284.86" y="2272.07" width="73.97" height="26.589" style="fill:white;stroke:white;stroke-width:1.17px;"/>
            </g>
            <g transform="matrix(1,0,0,1,971.653,44.7314)">
                <g transform="matrix(21.1797,0,0,21.1797,2324.29,2287.58)">
                    <path d="M0.132,-0.485L0.256,-0.246L0.058,-0L-0.015,-0L0.191,-0.252L0.067,-0.485L0.132,-0.485ZM0.3,-0.277L0.292,-0.227L0.207,-0.227L0.214,-0.277L0.3,-0.277ZM0.506,-0.485L0.316,-0.251L0.45,-0L0.385,-0L0.25,-0.256L0.436,-0.485L0.506,-0.485Z" style="fill-rule:nonzero;"/>
                </g>
                <g transform="matrix(21.1797,0,0,21.1797,2335.43,2287.58)">
                    <path d="M0.21,-0.333C0.249,-0.333 0.28,-0.328 0.301,-0.318C0.322,-0.307 0.333,-0.287 0.333,-0.258C0.333,-0.237 0.328,-0.217 0.318,-0.198C0.308,-0.179 0.295,-0.16 0.279,-0.143C0.263,-0.126 0.246,-0.109 0.227,-0.092L0.088,0.032C0.099,0.031 0.11,0.031 0.12,0.031L0.152,0.031L0.312,0.032L0.305,0.075L0.012,0.075L0.016,0.05C0.017,0.045 0.018,0.041 0.02,0.038C0.021,0.035 0.024,0.032 0.027,0.029L0.179,-0.107C0.196,-0.122 0.212,-0.137 0.227,-0.153C0.242,-0.168 0.253,-0.183 0.262,-0.199C0.271,-0.214 0.275,-0.23 0.275,-0.247C0.275,-0.264 0.269,-0.276 0.256,-0.281C0.243,-0.286 0.225,-0.289 0.203,-0.289C0.183,-0.289 0.163,-0.288 0.143,-0.287C0.122,-0.285 0.099,-0.282 0.072,-0.277L0.074,-0.316C0.104,-0.323 0.13,-0.328 0.153,-0.33C0.175,-0.332 0.194,-0.333 0.21,-0.333Z" style="fill-rule:nonzero;"/>
                </g>
            </g>
            <g transform="matrix(1,0,0,1,968.086,42.9257)">
                <g transform="matrix(21.1797,0,0,21.1797,2371.62,2289.38)">
                    <path d="M0.132,-0.485L0.256,-0.246L0.058,-0L-0.015,-0L0.191,-0.252L0.067,-0.485L0.132,-0.485ZM0.3,-0.277L0.292,-0.227L0.207,-0.227L0.214,-0.277L0.3,-0.277ZM0.506,-0.485L0.316,-0.251L0.45,-0L0.385,-0L0.25,-0.256L0.436,-0.485L0.506,-0.485Z" style="fill-rule:nonzero;"/>
                </g>
                <g transform="matrix(21.1797,0,0,21.1797,2382.76,2289.38)">
                    <path d="M0.198,-0.334C0.242,-0.334 0.274,-0.329 0.294,-0.318C0.314,-0.307 0.324,-0.288 0.324,-0.262C0.324,-0.233 0.318,-0.206 0.305,-0.183C0.292,-0.159 0.271,-0.144 0.242,-0.139L0.242,-0.137C0.265,-0.132 0.282,-0.124 0.292,-0.111C0.301,-0.098 0.306,-0.082 0.306,-0.062C0.306,-0.029 0.3,-0.001 0.289,0.021C0.277,0.042 0.26,0.058 0.237,0.068C0.214,0.078 0.186,0.083 0.152,0.083C0.127,0.083 0.102,0.082 0.078,0.079C0.054,0.076 0.032,0.073 0.013,0.07L0.024,0.031C0.037,0.033 0.051,0.035 0.064,0.036C0.077,0.037 0.091,0.038 0.105,0.039C0.119,0.04 0.133,0.04 0.148,0.04C0.184,0.04 0.211,0.032 0.228,0.016C0.245,-0.001 0.253,-0.026 0.253,-0.061C0.253,-0.076 0.248,-0.088 0.238,-0.098C0.228,-0.108 0.207,-0.113 0.176,-0.114L0.092,-0.115L0.097,-0.153L0.182,-0.155C0.213,-0.155 0.236,-0.163 0.25,-0.179C0.264,-0.195 0.271,-0.217 0.271,-0.245C0.271,-0.263 0.265,-0.275 0.253,-0.281C0.24,-0.287 0.219,-0.29 0.188,-0.29C0.168,-0.29 0.148,-0.289 0.127,-0.288C0.106,-0.286 0.088,-0.284 0.073,-0.281L0.074,-0.319C0.095,-0.323 0.117,-0.327 0.138,-0.33C0.159,-0.333 0.179,-0.334 0.198,-0.334Z" style="fill-rule:nonzero;"/>
                </g>
            </g>
            <g transform="matrix(1,0,0,1,962.369,43.1407)">
                <g transform="matrix(21.1797,0,0,21.1797,2402.13,2289.01)">
                    <path d="M0.132,-0.485L0.256,-0.246L0.058,-0L-0.015,-0L0.191,-0.252L0.067,-0.485L0.132,-0.485ZM0.3,-0.277L0.292,-0.227L0.207,-0.227L0.214,-0.277L0.3,-0.277ZM0.506,-0.485L0.316,-0.251L0.45,-0L0.385,-0L0.25,-0.256L0.436,-0.485L0.506,-0.485Z" style="fill-rule:nonzero;"/>
                </g>
                <g transform="matrix(21.1797,0,0,21.1797,2413.27,2289.01)">
                    <path d="M0.186,-0.328L0.238,-0.328L0.085,-0.091C0.08,-0.082 0.079,-0.076 0.08,-0.071C0.081,-0.066 0.086,-0.064 0.095,-0.064L0.338,-0.064L0.333,-0.026L0.283,-0.021L0.054,-0.019C0.038,-0.019 0.027,-0.026 0.022,-0.04C0.017,-0.053 0.019,-0.067 0.029,-0.082L0.186,-0.328ZM0.315,-0.251L0.269,0.075L0.22,0.075L0.257,-0.183L0.273,-0.251L0.315,-0.251Z" style="fill-rule:nonzero;"/>
                </g>
            </g>
            <g transform="matrix(1,0,0,1,966.782,48.6943)">
                <g transform="matrix(21.1797,0,0,21.1797,2446.39,2257.88)">
                    <path d="M0.132,-0.485L0.256,-0.246L0.058,-0L-0.015,-0L0.191,-0.252L0.067,-0.485L0.132,-0.485ZM0.3,-0.277L0.292,-0.227L0.207,-0.227L0.214,-0.277L0.3,-0.277ZM0.506,-0.485L0.316,-0.251L0.45,-0L0.385,-0L0.25,-0.256L0.436,-0.485L0.506,-0.485Z" style="fill-rule:nonzero;"/>
                </g>
                <g transform="matrix(21.1797,0,0,21.1797,2457.53,2257.88)">
                    <path d="M0.315,-0.327L0.306,-0.284L0.126,-0.284L0.103,-0.171L0.143,-0.169C0.193,-0.168 0.23,-0.16 0.255,-0.147C0.279,-0.134 0.291,-0.111 0.291,-0.078C0.291,-0.026 0.278,0.014 0.252,0.042C0.225,0.069 0.187,0.083 0.136,0.083C0.124,0.083 0.111,0.083 0.098,0.082C0.084,0.081 0.07,0.079 0.056,0.077C0.042,0.074 0.028,0.071 0.014,0.068L0.027,0.028C0.044,0.031 0.062,0.034 0.081,0.037C0.1,0.04 0.118,0.041 0.135,0.041C0.172,0.041 0.199,0.032 0.216,0.014C0.232,-0.004 0.24,-0.032 0.24,-0.07C0.24,-0.087 0.235,-0.1 0.225,-0.108C0.214,-0.115 0.199,-0.12 0.178,-0.122C0.157,-0.124 0.132,-0.125 0.101,-0.126L0.068,-0.128C0.063,-0.128 0.059,-0.13 0.057,-0.134C0.055,-0.137 0.054,-0.141 0.055,-0.146L0.089,-0.327L0.315,-0.327Z" style="fill-rule:nonzero;"/>
                </g>
            </g>
            <g transform="matrix(1,0,0,1,968.378,44.5033)">
                <g transform="matrix(21.1797,0,0,21.1797,2502.11,2262.07)">
                    <path d="M0.132,-0.485L0.256,-0.246L0.058,-0L-0.015,-0L0.191,-0.252L0.067,-0.485L0.132,-0.485ZM0.3,-0.277L0.292,-0.227L0.207,-0.227L0.214,-0.277L0.3,-0.277ZM0.506,-0.485L0.316,-0.251L0.45,-0L0.385,-0L0.25,-0.256L0.436,-0.485L0.506,-0.485Z" style="fill-rule:nonzero;"/>
                </g>
                <g transform="matrix(21.1797,0,0,21.1797,2513.25,2262.07)">
                    <path d="M0.241,-0.335C0.247,-0.335 0.255,-0.335 0.265,-0.334C0.274,-0.333 0.284,-0.332 0.295,-0.331C0.306,-0.329 0.316,-0.327 0.326,-0.324L0.315,-0.286C0.303,-0.288 0.291,-0.29 0.28,-0.291C0.268,-0.292 0.254,-0.293 0.238,-0.293C0.216,-0.293 0.198,-0.291 0.183,-0.287C0.168,-0.283 0.156,-0.275 0.146,-0.263C0.136,-0.251 0.128,-0.233 0.121,-0.208C0.114,-0.183 0.107,-0.15 0.101,-0.108C0.096,-0.071 0.093,-0.042 0.094,-0.02C0.095,0.002 0.101,0.018 0.113,0.027C0.124,0.036 0.144,0.041 0.172,0.041C0.21,0.041 0.236,0.03 0.249,0.007C0.262,-0.017 0.268,-0.05 0.268,-0.094C0.268,-0.111 0.262,-0.124 0.251,-0.132C0.24,-0.139 0.223,-0.143 0.202,-0.143C0.181,-0.143 0.162,-0.139 0.144,-0.132C0.126,-0.124 0.104,-0.108 0.079,-0.085L0.082,-0.116C0.104,-0.141 0.125,-0.159 0.146,-0.17C0.166,-0.181 0.19,-0.186 0.217,-0.186C0.25,-0.186 0.276,-0.18 0.294,-0.167C0.311,-0.154 0.32,-0.133 0.32,-0.102C0.32,-0.041 0.308,0.005 0.284,0.037C0.259,0.068 0.22,0.083 0.165,0.083C0.126,0.083 0.097,0.077 0.079,0.065C0.059,0.053 0.048,0.033 0.045,0.006C0.042,-0.022 0.043,-0.06 0.049,-0.109C0.056,-0.158 0.065,-0.198 0.076,-0.228C0.087,-0.257 0.1,-0.28 0.115,-0.296C0.13,-0.311 0.149,-0.322 0.17,-0.327C0.191,-0.332 0.214,-0.335 0.241,-0.335Z" style="fill-rule:nonzero;"/>
                </g>
            </g>
            <g transform="matrix(1,0,0,1,972.911,41.5676)">
                <g transform="matrix(21.1797,0,0,21.1797,2539.25,2293.28)">
                    <path d="M0.132,-0.485L0.256,-0.246L0.058,-0L-0.015,-0L0.191,-0.252L0.067,-0.485L0.132,-0.485ZM0.3,-0.277L0.292,-0.227L0.207,-0.227L0.214,-0.277L0.3,-0.277ZM0.506,-0.485L0.316,-0.251L0.45,-0L0.385,-0L0.25,-0.256L0.436,-0.485L0.506,-0.485Z" style="fill-rule:nonzero;"/>
                </g>
                <g transform="matrix(21.1797,0,0,21.1797,2550.39,2293.28)">
                    <path d="M0.304,-0.326C0.315,-0.326 0.323,-0.323 0.326,-0.318C0.329,-0.313 0.327,-0.305 0.322,-0.294L0.143,0.075L0.091,0.075L0.251,-0.255C0.254,-0.26 0.256,-0.264 0.259,-0.269C0.262,-0.273 0.264,-0.277 0.266,-0.281L0.058,-0.281L0.062,-0.326L0.304,-0.326Z" style="fill-rule:nonzero;"/>
                </g>
            </g>
            <g transform="matrix(1,0,0,1,970.949,44.2052)">
                <g transform="matrix(21.1797,0,0,21.1797,2565.72,2290.64)">
                    <path d="M0.132,-0.485L0.256,-0.246L0.058,-0L-0.015,-0L0.191,-0.252L0.067,-0.485L0.132,-0.485ZM0.3,-0.277L0.292,-0.227L0.207,-0.227L0.214,-0.277L0.3,-0.277ZM0.506,-0.485L0.316,-0.251L0.45,-0L0.385,-0L0.25,-0.256L0.436,-0.485L0.506,-0.485Z" style="fill-rule:nonzero;"/>
                </g>
                <g transform="matrix(21.1797,0,0,21.1797,2576.86,2290.64)">
                    <path d="M0.229,-0.333C0.279,-0.333 0.313,-0.325 0.331,-0.308C0.348,-0.291 0.355,-0.264 0.35,-0.227C0.346,-0.2 0.338,-0.178 0.327,-0.162C0.315,-0.146 0.299,-0.136 0.278,-0.133L0.278,-0.131C0.294,-0.129 0.306,-0.124 0.315,-0.115C0.324,-0.106 0.329,-0.094 0.332,-0.079C0.334,-0.064 0.333,-0.045 0.33,-0.024C0.327,0.001 0.32,0.021 0.309,0.037C0.298,0.053 0.281,0.065 0.26,0.072C0.238,0.079 0.209,0.083 0.173,0.083C0.12,0.083 0.083,0.075 0.064,0.058C0.045,0.041 0.037,0.013 0.042,-0.024C0.047,-0.056 0.056,-0.081 0.069,-0.1C0.081,-0.118 0.099,-0.128 0.124,-0.131L0.124,-0.133C0.105,-0.136 0.092,-0.146 0.085,-0.162C0.078,-0.178 0.077,-0.2 0.08,-0.227C0.084,-0.252 0.091,-0.272 0.102,-0.287C0.112,-0.302 0.127,-0.314 0.148,-0.322C0.169,-0.329 0.196,-0.333 0.229,-0.333ZM0.199,-0.11C0.174,-0.11 0.154,-0.108 0.141,-0.104C0.127,-0.099 0.117,-0.091 0.11,-0.08C0.103,-0.069 0.098,-0.052 0.095,-0.031C0.092,-0.005 0.096,0.013 0.107,0.024C0.118,0.035 0.142,0.04 0.178,0.04C0.213,0.04 0.238,0.035 0.253,0.024C0.267,0.013 0.276,-0.005 0.279,-0.031C0.282,-0.053 0.282,-0.07 0.279,-0.081C0.275,-0.092 0.267,-0.1 0.255,-0.104C0.242,-0.108 0.224,-0.11 0.199,-0.11ZM0.225,-0.291C0.192,-0.291 0.168,-0.286 0.155,-0.277C0.141,-0.267 0.132,-0.249 0.129,-0.223C0.126,-0.205 0.126,-0.191 0.129,-0.181C0.132,-0.17 0.14,-0.163 0.153,-0.159C0.165,-0.155 0.182,-0.153 0.205,-0.153C0.228,-0.153 0.246,-0.155 0.259,-0.16C0.272,-0.164 0.281,-0.171 0.288,-0.181C0.294,-0.191 0.298,-0.205 0.3,-0.223C0.304,-0.249 0.301,-0.267 0.29,-0.277C0.279,-0.286 0.258,-0.291 0.225,-0.291Z" style="fill-rule:nonzero;"/>
                </g>
            </g>
            <g transform="matrix(1,0,0,1,973.796,43.1895)">
                <g transform="matrix(21.1797,0,0,21.1797,2603.99,2291.49)">
                    <path d="M0.132,-0.485L0.256,-0.246L0.058,-0L-0.015,-0L0.191,-0.252L0.067,-0.485L0.132,-0.485ZM0.3,-0.277L0.292,-0.227L0.207,-0.227L0.214,-0.277L0.3,-0.277ZM0.506,-0.485L0.316,-0.251L0.45,-0L0.385,-0L0.25,-0.256L0.436,-0.485L0.506,-0.485Z" style="fill-rule:nonzero;"/>
                </g>
                <g transform="matrix(21.1797,0,0,21.1797,2615.13,2291.49)">
                    <path d="M0.142,0.083C0.135,0.083 0.126,0.083 0.115,0.082C0.104,0.081 0.092,0.08 0.081,0.079C0.069,0.077 0.058,0.074 0.048,0.071L0.058,0.033C0.071,0.035 0.084,0.037 0.098,0.039C0.111,0.04 0.127,0.041 0.145,0.041C0.166,0.041 0.184,0.039 0.199,0.035C0.213,0.031 0.225,0.023 0.235,0.011C0.245,-0.002 0.253,-0.02 0.26,-0.045C0.267,-0.07 0.273,-0.103 0.279,-0.144C0.284,-0.181 0.287,-0.211 0.286,-0.232C0.285,-0.253 0.28,-0.269 0.269,-0.279C0.258,-0.288 0.238,-0.293 0.211,-0.293C0.175,-0.293 0.15,-0.282 0.135,-0.259C0.12,-0.236 0.113,-0.206 0.113,-0.167C0.113,-0.145 0.118,-0.13 0.128,-0.122C0.137,-0.113 0.154,-0.109 0.178,-0.109C0.199,-0.109 0.219,-0.113 0.237,-0.121C0.254,-0.128 0.276,-0.144 0.301,-0.167L0.298,-0.136C0.276,-0.111 0.255,-0.093 0.235,-0.082C0.215,-0.071 0.191,-0.066 0.163,-0.066C0.128,-0.066 0.103,-0.073 0.087,-0.087C0.07,-0.101 0.062,-0.125 0.062,-0.158C0.062,-0.215 0.075,-0.259 0.101,-0.29C0.126,-0.32 0.166,-0.335 0.219,-0.335C0.256,-0.335 0.283,-0.329 0.302,-0.318C0.321,-0.306 0.332,-0.286 0.335,-0.258C0.338,-0.229 0.337,-0.191 0.33,-0.142C0.323,-0.093 0.315,-0.054 0.304,-0.025C0.293,0.005 0.281,0.028 0.266,0.044C0.251,0.059 0.233,0.07 0.213,0.075C0.192,0.08 0.169,0.083 0.142,0.083Z" style="fill-rule:nonzero;"/>
                </g>
            </g>
        </g>
    </g>
</svg>
