<?xml version="1.0" encoding="UTF-8" standalone="no"?>
<!DOCTYPE svg PUBLIC "-//W3C//DTD SVG 1.1//EN" "http://www.w3.org/Graphics/SVG/1.1/DTD/svg11.dtd">
<svg width="100%" height="100%" viewBox="0 0 165 108" version="1.1" xmlns="http://www.w3.org/2000/svg" xmlns:xlink="http://www.w3.org/1999/xlink" xml:space="preserve" xmlns:serif="http://www.serif.com/" style="fill-rule:evenodd;clip-rule:evenodd;stroke-linecap:round;stroke-linejoin:round;stroke-miterlimit:1.5;">
    <g transform="matrix(1,0,0,1,-1781,-2391)">
        <g id="Монтажная-область8" serif:id="Монтажная область8" transform="matrix(1,0,0,1,-0.51413,-0.292288)">
            <rect x="1566.51" y="2348.29" width="573.502" height="225.846" style="fill:none;"/>
            <g transform="matrix(1,0,0,1,0.51413,0.292288)">
                <path d="M1792.42,2476.48L1792.42,2434.39C1792.42,2434.39 1792.61,2428.45 1819.77,2428.45C1846.93,2428.45 1847.12,2434.39 1847.12,2434.39L1847.12,2476.48C1847.12,2476.48 1847.29,2481.16 1819.77,2481.16C1792.25,2481.16 1792.42,2476.48 1792.42,2476.48Z" style="fill:rgb(114,216,252);stroke:black;stroke-width:0.75px;stroke-dasharray:3.75,3,0,0;"/>
            </g>
            <g transform="matrix(1.49893,0,0,1,-831.088,0.292288)">
                <path d="M1792.42,2476.48L1792.42,2455.39C1792.42,2455.39 1792.61,2449.45 1819.77,2449.45C1846.93,2449.45 1847.12,2455.39 1847.12,2455.39L1847.12,2476.48C1847.12,2476.48 1847.29,2481.16 1819.77,2481.16C1792.25,2481.16 1792.42,2476.48 1792.42,2476.48Z" style="fill:rgb(114,216,252);stroke:black;stroke-width:0.59px;stroke-dasharray:2.94,2.35,0,0;"/>
            </g>
            <g transform="matrix(1,0,0,1,0.51413,0.292288)">
                <path d="M1792.42,2476.48C1792.42,2476.48 1792.53,2470.53 1819.77,2470.53C1847.01,2470.53 1847.12,2476.48 1847.12,2476.48" style="fill:none;stroke:black;stroke-width:0.75px;stroke-dasharray:3.75,3,0,0;"/>
            </g>
            <g transform="matrix(1.49893,0,0,1,-831.088,0.292288)">
                <path d="M1792.42,2476.48C1792.42,2476.48 1792.53,2470.53 1819.77,2470.53C1847.01,2470.53 1847.12,2476.48 1847.12,2476.48" style="fill:none;stroke:black;stroke-width:0.59px;stroke-dasharray:2.94,2.35,0,0;"/>
            </g>
            <g transform="matrix(1,0,0,1,0.51413,0.292288)">
                <path d="M1792.42,2410.69L1792.42,2476.48C1792.42,2476.48 1792.3,2481.16 1819.77,2481.16C1847.25,2481.16 1847.12,2476.48 1847.12,2476.48L1847.12,2410.69C1847.12,2410.69 1846.94,2405.46 1819.77,2405.5C1792.81,2405.54 1792.42,2410.69 1792.42,2410.69Z" style="fill:none;stroke:black;stroke-width:0.75px;"/>
            </g>
            <g transform="matrix(1.49893,0,0,1,-831.088,0.292288)">
                <path d="M1792.42,2410.69L1792.42,2476.48C1792.42,2476.48 1792.3,2481.16 1819.77,2481.16C1847.25,2481.16 1847.12,2476.48 1847.12,2476.48L1847.12,2410.69C1847.12,2410.69 1846.94,2405.46 1819.77,2405.5C1792.81,2405.54 1792.42,2410.69 1792.42,2410.69Z" style="fill:none;stroke:black;stroke-width:0.59px;"/>
            </g>
            <g transform="matrix(1,0,0,1,0.51413,0.292288)">
                <path d="M1792.42,2410.69C1792.42,2410.69 1792.47,2416.27 1819.77,2416.27C1847.07,2416.27 1847.12,2410.69 1847.12,2410.69" style="fill:none;stroke:black;stroke-width:0.75px;"/>
            </g>
            <g transform="matrix(1.49893,0,0,1,-831.088,0.292288)">
                <path d="M1792.42,2410.69C1792.42,2410.69 1792.47,2416.27 1819.77,2416.27C1847.07,2416.27 1847.12,2410.69 1847.12,2410.69" style="fill:none;stroke:black;stroke-width:0.59px;"/>
            </g>
            <g transform="matrix(1,0,0,1,0.514141,24.0005)">
                <path d="M1792.42,2410.69C1792.42,2410.69 1792.47,2416.27 1819.77,2416.27C1847.07,2416.27 1847.12,2410.69 1847.12,2410.69" style="fill:none;stroke:black;stroke-width:0.75px;"/>
            </g>
            <g transform="matrix(1.49893,0,0,1,-831.088,24.0005)">
                <path d="M1792.42,2431.69C1792.42,2431.69 1792.47,2437.27 1819.77,2437.27C1847.07,2437.27 1847.12,2431.69 1847.12,2431.69" style="fill:none;stroke:black;stroke-width:0.59px;"/>
            </g>
        </g>
    </g>
</svg>
