<?xml version="1.0" encoding="UTF-8" standalone="no"?>
<!DOCTYPE svg PUBLIC "-//W3C//DTD SVG 1.1//EN" "http://www.w3.org/Graphics/SVG/1.1/DTD/svg11.dtd">
<svg width="100%" height="100%" viewBox="0 0 155 122" version="1.1" xmlns="http://www.w3.org/2000/svg" xmlns:xlink="http://www.w3.org/1999/xlink" xml:space="preserve" xmlns:serif="http://www.serif.com/" style="fill-rule:evenodd;clip-rule:evenodd;stroke-linecap:round;stroke-linejoin:round;stroke-miterlimit:1.5;">
    <g transform="matrix(1,0,0,1,-1550,-2001)">
        <g id="Монтажная-область7" serif:id="Монтажная область7" transform="matrix(1,0,0,1,-64.6072,3.47999)">
            <rect x="1615.39" y="1988.53" width="573.502" height="303.798" style="fill:none;"/>
            <g>
                <g transform="matrix(0.788376,0,0,0.788376,-74.795,953.568)">
                    <g transform="matrix(1,0,0,1,0.861146,0.453738)">
                        <circle cx="2236.54" cy="1406.94" r="62.405" style="fill:none;stroke:black;stroke-width:1.27px;"/>
                    </g>
                    <g transform="matrix(1,0,0,1,0.861146,0.453738)">
                        <path d="M2286.41,1443.27L2178.64,1430.24L2253.18,1346.78" style="fill:none;stroke:black;stroke-width:1.27px;"/>
                    </g>
                    <g transform="matrix(1,0,0,1,0.861146,0.453738)">
                        <path d="M2286.41,1443.27L2236.54,1406.94L2253.18,1346.78" style="fill:none;stroke:black;stroke-width:1.27px;"/>
                    </g>
                </g>
                <g transform="matrix(2.32518,0,0,2.32518,-3252.47,-1404.02)">
                    <g transform="matrix(6.7812,0,0,6.7812,2130.79,1469.34)">
                        <path d="M0.359,-0.698C0.414,-0.698 0.458,-0.693 0.49,-0.682C0.523,-0.671 0.545,-0.653 0.556,-0.626C0.568,-0.6 0.571,-0.563 0.564,-0.515C0.557,-0.467 0.543,-0.43 0.522,-0.404C0.5,-0.378 0.468,-0.363 0.426,-0.359L0.425,-0.355C0.476,-0.351 0.509,-0.332 0.525,-0.299C0.54,-0.267 0.544,-0.223 0.536,-0.169C0.529,-0.122 0.517,-0.086 0.5,-0.06C0.482,-0.034 0.458,-0.016 0.425,-0.007C0.393,0.003 0.351,0.008 0.299,0.008C0.261,0.008 0.228,0.008 0.2,0.008C0.172,0.007 0.147,0.006 0.124,0.005C0.101,0.004 0.077,0.002 0.051,-0L0.071,-0.052C0.086,-0.051 0.113,-0.05 0.152,-0.05C0.191,-0.049 0.237,-0.049 0.29,-0.049C0.331,-0.049 0.364,-0.052 0.388,-0.06C0.413,-0.067 0.432,-0.081 0.445,-0.1C0.458,-0.12 0.467,-0.148 0.472,-0.184C0.478,-0.223 0.477,-0.253 0.469,-0.274C0.462,-0.295 0.447,-0.31 0.424,-0.318C0.402,-0.327 0.369,-0.331 0.328,-0.332L0.111,-0.332L0.119,-0.383L0.331,-0.383C0.368,-0.384 0.398,-0.387 0.421,-0.395C0.444,-0.402 0.462,-0.415 0.474,-0.434C0.487,-0.453 0.495,-0.48 0.5,-0.514C0.505,-0.55 0.504,-0.576 0.496,-0.594C0.489,-0.613 0.474,-0.625 0.451,-0.632C0.429,-0.638 0.397,-0.641 0.357,-0.641L0.203,-0.641C0.184,-0.641 0.169,-0.641 0.158,-0.64L0.148,-0.69C0.171,-0.693 0.192,-0.695 0.212,-0.696C0.232,-0.697 0.254,-0.697 0.277,-0.698C0.301,-0.698 0.328,-0.698 0.359,-0.698ZM0.212,-0.69L0.115,-0L0.051,-0L0.148,-0.69L0.212,-0.69Z" style="fill-rule:nonzero;"/>
                    </g>
                </g>
                <g transform="matrix(1.60768,0,0,1.60768,-1794.55,-273.177)">
                    <g transform="matrix(9.80761,0,0,9.80761,2130.79,1469.34)">
                        <path d="M0.4,-0.69C0.406,-0.69 0.412,-0.688 0.416,-0.684C0.421,-0.68 0.423,-0.676 0.424,-0.67L0.561,-0L0.495,-0L0.383,-0.581C0.382,-0.591 0.38,-0.601 0.379,-0.61C0.377,-0.62 0.376,-0.629 0.374,-0.639L0.344,-0.639L0.318,-0.581L0.043,-0L-0.027,-0L0.299,-0.672C0.301,-0.679 0.304,-0.683 0.309,-0.686C0.314,-0.689 0.319,-0.69 0.325,-0.69L0.4,-0.69ZM0.482,-0.286L0.474,-0.228L0.124,-0.228L0.132,-0.286L0.482,-0.286Z" style="fill-rule:nonzero;"/>
                    </g>
                </g>
                <g transform="matrix(2.32518,0,0,2.32518,-3222.35,-1316.36)">
                    <g transform="matrix(6.7812,0,0,6.7812,2130.79,1469.34)">
                        <path d="M0.384,-0.702C0.413,-0.702 0.438,-0.701 0.458,-0.7C0.479,-0.699 0.498,-0.697 0.515,-0.694C0.532,-0.691 0.549,-0.687 0.567,-0.682L0.555,-0.633C0.536,-0.636 0.519,-0.638 0.502,-0.639C0.485,-0.641 0.468,-0.642 0.45,-0.643C0.431,-0.643 0.409,-0.644 0.384,-0.644C0.346,-0.644 0.314,-0.639 0.287,-0.629C0.26,-0.619 0.237,-0.603 0.219,-0.58C0.2,-0.558 0.184,-0.527 0.172,-0.488C0.159,-0.449 0.149,-0.4 0.142,-0.342C0.131,-0.268 0.129,-0.209 0.135,-0.166C0.14,-0.123 0.156,-0.093 0.182,-0.074C0.207,-0.056 0.244,-0.047 0.292,-0.046C0.335,-0.046 0.371,-0.047 0.4,-0.049C0.429,-0.051 0.457,-0.054 0.485,-0.058L0.49,-0.009C0.461,-0.001 0.431,0.004 0.401,0.007C0.371,0.01 0.335,0.012 0.292,0.012C0.227,0.012 0.176,-0 0.14,-0.024C0.104,-0.049 0.081,-0.087 0.071,-0.14C0.06,-0.193 0.061,-0.262 0.073,-0.348C0.083,-0.413 0.095,-0.468 0.111,-0.514C0.126,-0.559 0.146,-0.595 0.17,-0.623C0.194,-0.651 0.224,-0.671 0.259,-0.683C0.294,-0.696 0.336,-0.702 0.384,-0.702Z" style="fill-rule:nonzero;"/>
                    </g>
                </g>
                <g transform="matrix(2.32518,0,0,2.32518,-3261.36,-1351.68)">
                    <g transform="matrix(6.7812,0,0,6.7812,2130.79,1469.34)">
                        <path d="M0.387,-0.703C0.45,-0.703 0.5,-0.691 0.536,-0.668C0.573,-0.645 0.597,-0.607 0.608,-0.554C0.618,-0.501 0.618,-0.431 0.605,-0.342C0.596,-0.276 0.584,-0.22 0.568,-0.175C0.552,-0.129 0.533,-0.093 0.509,-0.065C0.485,-0.038 0.455,-0.018 0.42,-0.006C0.385,0.007 0.343,0.013 0.295,0.013C0.231,0.013 0.181,0.001 0.144,-0.022C0.108,-0.044 0.084,-0.082 0.072,-0.135C0.061,-0.187 0.061,-0.258 0.073,-0.348C0.083,-0.413 0.095,-0.468 0.11,-0.513C0.126,-0.558 0.145,-0.595 0.17,-0.623C0.194,-0.651 0.224,-0.671 0.259,-0.684C0.295,-0.696 0.337,-0.703 0.387,-0.703ZM0.383,-0.644C0.333,-0.644 0.292,-0.634 0.26,-0.616C0.228,-0.597 0.203,-0.566 0.185,-0.522C0.167,-0.478 0.152,-0.418 0.142,-0.342C0.132,-0.268 0.129,-0.209 0.135,-0.166C0.141,-0.123 0.157,-0.093 0.183,-0.074C0.209,-0.056 0.246,-0.046 0.295,-0.046C0.346,-0.046 0.387,-0.056 0.418,-0.075C0.45,-0.093 0.475,-0.125 0.493,-0.169C0.512,-0.213 0.527,-0.272 0.537,-0.348C0.548,-0.423 0.551,-0.483 0.545,-0.526C0.539,-0.569 0.523,-0.599 0.497,-0.617C0.471,-0.635 0.433,-0.644 0.383,-0.644Z" style="fill-rule:nonzero;"/>
                    </g>
                </g>
            </g>
        </g>
    </g>
</svg>
